<mxfile host="65bd71144e">
    <diagram id="C5RBs43oDa-KdzZeNtuy" name="1-1ユーザ登録">
        <mxGraphModel dx="1573" dy="1668" grid="0" gridSize="10" guides="1" tooltips="1" connect="1" arrows="1" fold="1" page="1" pageScale="1" pageWidth="827" pageHeight="1169" math="0" shadow="0">
            <root>
                <mxCell id="WIyWlLk6GJQsqaUBKTNV-0"/>
                <mxCell id="WIyWlLk6GJQsqaUBKTNV-1" parent="WIyWlLk6GJQsqaUBKTNV-0"/>
                <mxCell id="Ysn_fYueUFjaJA8qD3fm-2" style="edgeStyle=none;html=1;entryX=0;entryY=0.5;entryDx=0;entryDy=0;" parent="WIyWlLk6GJQsqaUBKTNV-1" source="fxRwKkbHuMDtNF4K21Cm-1" target="Ysn_fYueUFjaJA8qD3fm-0" edge="1">
                    <mxGeometry relative="1" as="geometry"/>
                </mxCell>
                <mxCell id="KKop8eCEL47JWWGgOwEo-4" style="edgeStyle=none;html=1;" parent="WIyWlLk6GJQsqaUBKTNV-1" source="fxRwKkbHuMDtNF4K21Cm-1" target="KKop8eCEL47JWWGgOwEo-1" edge="1">
                    <mxGeometry relative="1" as="geometry"/>
                </mxCell>
                <mxCell id="KKop8eCEL47JWWGgOwEo-25" style="edgeStyle=none;html=1;entryX=0.5;entryY=1;entryDx=0;entryDy=0;" parent="WIyWlLk6GJQsqaUBKTNV-1" source="fxRwKkbHuMDtNF4K21Cm-1" target="KKop8eCEL47JWWGgOwEo-6" edge="1">
                    <mxGeometry relative="1" as="geometry"/>
                </mxCell>
                <mxCell id="KKop8eCEL47JWWGgOwEo-32" style="edgeStyle=none;html=1;" parent="WIyWlLk6GJQsqaUBKTNV-1" source="fxRwKkbHuMDtNF4K21Cm-1" edge="1">
                    <mxGeometry relative="1" as="geometry">
                        <mxPoint x="-44.999969482421875" y="446.9999694824219" as="targetPoint"/>
                        <Array as="points">
                            <mxPoint x="97" y="475"/>
                            <mxPoint x="45" y="484"/>
                            <mxPoint x="-15" y="471"/>
                        </Array>
                    </mxGeometry>
                </mxCell>
                <mxCell id="KKop8eCEL47JWWGgOwEo-35" style="edgeStyle=none;html=1;entryX=0.5;entryY=0;entryDx=0;entryDy=0;" parent="WIyWlLk6GJQsqaUBKTNV-1" source="fxRwKkbHuMDtNF4K21Cm-1" target="KKop8eCEL47JWWGgOwEo-34" edge="1">
                    <mxGeometry relative="1" as="geometry"/>
                </mxCell>
                <mxCell id="fxRwKkbHuMDtNF4K21Cm-1" value="UserRegisterController" style="swimlane;whiteSpace=wrap;html=1;startSize=58;" parent="WIyWlLk6GJQsqaUBKTNV-1" vertex="1">
                    <mxGeometry x="120" y="344" width="200" height="123" as="geometry"/>
                </mxCell>
                <mxCell id="KKop8eCEL47JWWGgOwEo-26" value="toInsert(form: UserRegisterForm)" style="text;html=1;align=left;verticalAlign=middle;resizable=0;points=[];autosize=1;strokeColor=none;fillColor=none;" parent="fxRwKkbHuMDtNF4K21Cm-1" vertex="1">
                    <mxGeometry x="2" y="66" width="195" height="26" as="geometry"/>
                </mxCell>
                <mxCell id="KKop8eCEL47JWWGgOwEo-3" style="edgeStyle=none;html=1;entryX=0.5;entryY=0;entryDx=0;entryDy=0;" parent="WIyWlLk6GJQsqaUBKTNV-1" source="Ysn_fYueUFjaJA8qD3fm-0" target="KKop8eCEL47JWWGgOwEo-1" edge="1">
                    <mxGeometry relative="1" as="geometry"/>
                </mxCell>
                <mxCell id="KKop8eCEL47JWWGgOwEo-5" style="edgeStyle=none;html=1;exitX=1;exitY=0.5;exitDx=0;exitDy=0;" parent="WIyWlLk6GJQsqaUBKTNV-1" source="Ysn_fYueUFjaJA8qD3fm-0" target="Ysn_fYueUFjaJA8qD3fm-3" edge="1">
                    <mxGeometry relative="1" as="geometry"/>
                </mxCell>
                <mxCell id="Ysn_fYueUFjaJA8qD3fm-0" value="UserRegisterService" style="swimlane;whiteSpace=wrap;html=1;startSize=58;" parent="WIyWlLk6GJQsqaUBKTNV-1" vertex="1">
                    <mxGeometry x="413" y="306" width="200" height="138" as="geometry"/>
                </mxCell>
                <mxCell id="KKop8eCEL47JWWGgOwEo-10" value="insert(user User): void" style="text;html=1;strokeColor=none;fillColor=none;align=center;verticalAlign=middle;whiteSpace=wrap;rounded=0;" parent="Ysn_fYueUFjaJA8qD3fm-0" vertex="1">
                    <mxGeometry x="4" y="66" width="141" height="30" as="geometry"/>
                </mxCell>
                <mxCell id="K1Z6L5SYY3hBiR8gxcOm-2" value="checkEmail(email: String): boolean" style="text;html=1;strokeColor=none;fillColor=none;align=center;verticalAlign=middle;whiteSpace=wrap;rounded=0;" parent="Ysn_fYueUFjaJA8qD3fm-0" vertex="1">
                    <mxGeometry x="4" y="98" width="194" height="30" as="geometry"/>
                </mxCell>
                <mxCell id="KKop8eCEL47JWWGgOwEo-2" style="edgeStyle=none;html=1;" parent="WIyWlLk6GJQsqaUBKTNV-1" source="Ysn_fYueUFjaJA8qD3fm-3" target="KKop8eCEL47JWWGgOwEo-1" edge="1">
                    <mxGeometry relative="1" as="geometry"/>
                </mxCell>
                <mxCell id="Ysn_fYueUFjaJA8qD3fm-3" value="UserRepository" style="swimlane;whiteSpace=wrap;html=1;startSize=58;" parent="WIyWlLk6GJQsqaUBKTNV-1" vertex="1">
                    <mxGeometry x="716" y="305" width="200" height="145" as="geometry"/>
                </mxCell>
                <mxCell id="KKop8eCEL47JWWGgOwEo-0" value="insert(user User): void" style="text;html=1;strokeColor=none;fillColor=none;align=center;verticalAlign=middle;whiteSpace=wrap;rounded=0;" parent="Ysn_fYueUFjaJA8qD3fm-3" vertex="1">
                    <mxGeometry x="6" y="66" width="138" height="30" as="geometry"/>
                </mxCell>
                <mxCell id="K1Z6L5SYY3hBiR8gxcOm-3" value="findByEmail(email String): User" style="text;html=1;strokeColor=none;fillColor=none;align=center;verticalAlign=middle;whiteSpace=wrap;rounded=0;" parent="Ysn_fYueUFjaJA8qD3fm-3" vertex="1">
                    <mxGeometry x="6" y="101" width="188" height="30" as="geometry"/>
                </mxCell>
                <mxCell id="KKop8eCEL47JWWGgOwEo-1" value="User" style="swimlane;whiteSpace=wrap;html=1;startSize=58;" parent="WIyWlLk6GJQsqaUBKTNV-1" vertex="1">
                    <mxGeometry x="413" y="581" width="200" height="100" as="geometry"/>
                </mxCell>
                <mxCell id="KKop8eCEL47JWWGgOwEo-6" value="UserRegisterForm" style="swimlane;whiteSpace=wrap;html=1;startSize=58;" parent="WIyWlLk6GJQsqaUBKTNV-1" vertex="1">
                    <mxGeometry x="120" y="-82" width="200" height="359" as="geometry"/>
                </mxCell>
                <mxCell id="KKop8eCEL47JWWGgOwEo-15" value="password String" style="text;html=1;align=left;verticalAlign=middle;resizable=0;points=[];autosize=1;strokeColor=none;fillColor=none;" parent="KKop8eCEL47JWWGgOwEo-6" vertex="1">
                    <mxGeometry y="150" width="104" height="26" as="geometry"/>
                </mxCell>
                <mxCell id="KKop8eCEL47JWWGgOwEo-14" value="email: String" style="text;html=1;align=left;verticalAlign=middle;resizable=0;points=[];autosize=1;strokeColor=none;fillColor=none;" parent="KKop8eCEL47JWWGgOwEo-6" vertex="1">
                    <mxGeometry y="123" width="85" height="26" as="geometry"/>
                </mxCell>
                <mxCell id="KKop8eCEL47JWWGgOwEo-11" value="lastName: String" style="text;html=1;align=left;verticalAlign=middle;resizable=0;points=[];autosize=1;strokeColor=none;fillColor=none;" parent="KKop8eCEL47JWWGgOwEo-6" vertex="1">
                    <mxGeometry y="71" width="107" height="26" as="geometry"/>
                </mxCell>
                <mxCell id="KKop8eCEL47JWWGgOwEo-20" value="zipcode String" style="text;html=1;align=left;verticalAlign=middle;resizable=0;points=[];autosize=1;strokeColor=none;fillColor=none;" parent="KKop8eCEL47JWWGgOwEo-6" vertex="1">
                    <mxGeometry y="213" width="94" height="26" as="geometry"/>
                </mxCell>
                <mxCell id="KKop8eCEL47JWWGgOwEo-22" value="municipalities String" style="text;html=1;align=left;verticalAlign=middle;resizable=0;points=[];autosize=1;strokeColor=none;fillColor=none;" parent="KKop8eCEL47JWWGgOwEo-6" vertex="1">
                    <mxGeometry x="-1.5" y="240" width="125" height="26" as="geometry"/>
                </mxCell>
                <mxCell id="KKop8eCEL47JWWGgOwEo-24" value="telephone String" style="text;html=1;align=left;verticalAlign=middle;resizable=0;points=[];autosize=1;strokeColor=none;fillColor=none;" parent="KKop8eCEL47JWWGgOwEo-6" vertex="1">
                    <mxGeometry x="2" y="318" width="105" height="26" as="geometry"/>
                </mxCell>
                <mxCell id="KKop8eCEL47JWWGgOwEo-21" value="prefecture String" style="text;html=1;align=left;verticalAlign=middle;resizable=0;points=[];autosize=1;strokeColor=none;fillColor=none;" parent="KKop8eCEL47JWWGgOwEo-6" vertex="1">
                    <mxGeometry x="2" y="267" width="107" height="26" as="geometry"/>
                </mxCell>
                <mxCell id="KKop8eCEL47JWWGgOwEo-23" value="address String" style="text;html=1;align=left;verticalAlign=middle;resizable=0;points=[];autosize=1;strokeColor=none;fillColor=none;" parent="KKop8eCEL47JWWGgOwEo-6" vertex="1">
                    <mxGeometry x="1.5" y="292" width="95" height="26" as="geometry"/>
                </mxCell>
                <mxCell id="K1Z6L5SYY3hBiR8gxcOm-1" value="confirmPassword String" style="text;html=1;align=left;verticalAlign=middle;resizable=0;points=[];autosize=1;strokeColor=none;fillColor=none;" parent="KKop8eCEL47JWWGgOwEo-6" vertex="1">
                    <mxGeometry x="0.5" y="180" width="145" height="26" as="geometry"/>
                </mxCell>
                <mxCell id="KKop8eCEL47JWWGgOwEo-29" style="edgeStyle=none;html=1;exitX=1;exitY=0.5;exitDx=0;exitDy=0;entryX=0;entryY=0.5;entryDx=0;entryDy=0;" parent="WIyWlLk6GJQsqaUBKTNV-1" source="KKop8eCEL47JWWGgOwEo-27" target="fxRwKkbHuMDtNF4K21Cm-1" edge="1">
                    <mxGeometry relative="1" as="geometry"/>
                </mxCell>
                <mxCell id="KKop8eCEL47JWWGgOwEo-27" value="register_user.html" style="swimlane;whiteSpace=wrap;html=1;startSize=58;" parent="WIyWlLk6GJQsqaUBKTNV-1" vertex="1">
                    <mxGeometry x="-225" y="344" width="200" height="100" as="geometry"/>
                </mxCell>
                <mxCell id="KKop8eCEL47JWWGgOwEo-30" value="request" style="text;html=1;align=center;verticalAlign=middle;resizable=0;points=[];autosize=1;strokeColor=none;fillColor=none;" parent="WIyWlLk6GJQsqaUBKTNV-1" vertex="1">
                    <mxGeometry x="11" y="361" width="58" height="26" as="geometry"/>
                </mxCell>
                <mxCell id="KKop8eCEL47JWWGgOwEo-33" value="forward&lt;br&gt;redirect" style="text;html=1;align=center;verticalAlign=middle;resizable=0;points=[];autosize=1;strokeColor=none;fillColor=none;" parent="WIyWlLk6GJQsqaUBKTNV-1" vertex="1">
                    <mxGeometry x="18" y="431" width="58" height="41" as="geometry"/>
                </mxCell>
                <mxCell id="KKop8eCEL47JWWGgOwEo-38" style="edgeStyle=none;html=1;exitX=1;exitY=0.5;exitDx=0;exitDy=0;entryX=0.5;entryY=1;entryDx=0;entryDy=0;" parent="WIyWlLk6GJQsqaUBKTNV-1" source="KKop8eCEL47JWWGgOwEo-34" target="fxRwKkbHuMDtNF4K21Cm-1" edge="1">
                    <mxGeometry relative="1" as="geometry">
                        <Array as="points">
                            <mxPoint x="204" y="578"/>
                        </Array>
                    </mxGeometry>
                </mxCell>
                <mxCell id="KKop8eCEL47JWWGgOwEo-34" value="login.html" style="swimlane;whiteSpace=wrap;html=1;startSize=58;" parent="WIyWlLk6GJQsqaUBKTNV-1" vertex="1">
                    <mxGeometry x="-57" y="612" width="200" height="100" as="geometry"/>
                </mxCell>
                <mxCell id="KKop8eCEL47JWWGgOwEo-36" value="forward" style="text;html=1;align=center;verticalAlign=middle;resizable=0;points=[];autosize=1;strokeColor=none;fillColor=none;" parent="WIyWlLk6GJQsqaUBKTNV-1" vertex="1">
                    <mxGeometry x="117" y="520" width="58" height="26" as="geometry"/>
                </mxCell>
                <mxCell id="KKop8eCEL47JWWGgOwEo-37" value="insert(form: UserRegisterForm)" style="text;html=1;align=left;verticalAlign=middle;resizable=0;points=[];autosize=1;strokeColor=none;fillColor=none;" parent="WIyWlLk6GJQsqaUBKTNV-1" vertex="1">
                    <mxGeometry x="122" y="434" width="184" height="26" as="geometry"/>
                </mxCell>
                <mxCell id="KKop8eCEL47JWWGgOwEo-39" value="request" style="text;html=1;align=center;verticalAlign=middle;resizable=0;points=[];autosize=1;strokeColor=none;fillColor=none;" parent="WIyWlLk6GJQsqaUBKTNV-1" vertex="1">
                    <mxGeometry x="212" y="523" width="58" height="26" as="geometry"/>
                </mxCell>
                <mxCell id="K1Z6L5SYY3hBiR8gxcOm-0" value="firstName: String" style="text;html=1;align=left;verticalAlign=middle;resizable=0;points=[];autosize=1;strokeColor=none;fillColor=none;" parent="WIyWlLk6GJQsqaUBKTNV-1" vertex="1">
                    <mxGeometry x="119" y="11" width="107" height="26" as="geometry"/>
                </mxCell>
            </root>
        </mxGraphModel>
    </diagram>
    <diagram id="2OMN_pCtlgwQq61VjltP" name="1-2ログイン/ログアウト">
        <mxGraphModel dx="986" dy="537" grid="1" gridSize="10" guides="1" tooltips="1" connect="1" arrows="1" fold="1" page="1" pageScale="1" pageWidth="827" pageHeight="1169" math="0" shadow="0">
            <root>
                <mxCell id="0"/>
                <mxCell id="1" parent="0"/>
                <mxCell id="9R4VHJNBQ8q8rERMfp5s-1" value="LoginForm" style="swimlane;startSize=40;" parent="1" vertex="1">
                    <mxGeometry x="280" y="120" width="200" height="160" as="geometry">
                        <mxRectangle x="260" y="170" width="100" height="40" as="alternateBounds"/>
                    </mxGeometry>
                </mxCell>
                <mxCell id="9R4VHJNBQ8q8rERMfp5s-13" value="&lt;font style=&quot;font-size: 14px;&quot;&gt;email : String&lt;br&gt;password : String&lt;br&gt;-----------------------------------------&lt;br&gt;Getter/Setter&lt;br&gt;toString()&lt;br&gt;&lt;/font&gt;" style="text;html=1;strokeColor=none;fillColor=none;align=left;verticalAlign=top;whiteSpace=wrap;rounded=0;" parent="9R4VHJNBQ8q8rERMfp5s-1" vertex="1">
                    <mxGeometry y="40" width="200" height="110" as="geometry"/>
                </mxCell>
                <mxCell id="q5KxOoT1VR1R5z1FJ6g6-6" style="edgeStyle=none;html=1;exitX=0.5;exitY=0;exitDx=0;exitDy=0;entryX=0.5;entryY=1;entryDx=0;entryDy=0;fontFamily=Helvetica;" parent="1" source="9R4VHJNBQ8q8rERMfp5s-20" target="9R4VHJNBQ8q8rERMfp5s-1" edge="1">
                    <mxGeometry relative="1" as="geometry"/>
                </mxCell>
                <mxCell id="9R4VHJNBQ8q8rERMfp5s-20" value="LoginLogoutController" style="swimlane;startSize=40;" parent="1" vertex="1">
                    <mxGeometry x="280" y="360" width="200" height="160" as="geometry">
                        <mxRectangle x="260" y="170" width="100" height="40" as="alternateBounds"/>
                    </mxGeometry>
                </mxCell>
                <mxCell id="9R4VHJNBQ8q8rERMfp5s-21" value="&lt;font style=&quot;font-size: 14px;&quot;&gt;toLogin(LoginForm form):String&lt;br&gt;&lt;br&gt;login(LoginForm form):String&lt;br&gt;&lt;br&gt;logout():String&lt;br&gt;&lt;/font&gt;" style="text;html=1;strokeColor=none;fillColor=none;align=left;verticalAlign=top;whiteSpace=wrap;rounded=0;" parent="9R4VHJNBQ8q8rERMfp5s-20" vertex="1">
                    <mxGeometry y="40" width="200" height="120" as="geometry"/>
                </mxCell>
                <mxCell id="OuW4H_R_hTUdj9uoVyof-1" style="edgeStyle=none;html=1;exitX=0.5;exitY=0;exitDx=0;exitDy=0;entryX=0.5;entryY=1;entryDx=0;entryDy=0;fontFamily=Helvetica;" parent="1" source="Kv2s_iUI0MM-Mi1fy_hT-1" target="GEg14cSJfnCCsvcRNE9G-2" edge="1">
                    <mxGeometry relative="1" as="geometry"/>
                </mxCell>
                <mxCell id="BBCyD3tEiFFk3RQeWLNs-7" style="edgeStyle=none;html=1;exitX=0.5;exitY=1;exitDx=0;exitDy=0;entryX=0.5;entryY=0;entryDx=0;entryDy=0;fontFamily=Helvetica;" parent="1" source="Kv2s_iUI0MM-Mi1fy_hT-1" target="q5KxOoT1VR1R5z1FJ6g6-1" edge="1">
                    <mxGeometry relative="1" as="geometry"/>
                </mxCell>
                <mxCell id="Kv2s_iUI0MM-Mi1fy_hT-1" value="LoginLogoutService" style="swimlane;startSize=40;" parent="1" vertex="1">
                    <mxGeometry x="600" y="360" width="200" height="110" as="geometry">
                        <mxRectangle x="260" y="170" width="100" height="40" as="alternateBounds"/>
                    </mxGeometry>
                </mxCell>
                <mxCell id="Kv2s_iUI0MM-Mi1fy_hT-2" value="&lt;font style=&quot;&quot;&gt;&lt;span style=&quot;font-size: 14px;&quot;&gt;login(String mailAddress, String passward):User&lt;/span&gt;&lt;br&gt;&lt;/font&gt;" style="text;html=1;strokeColor=none;fillColor=none;align=left;verticalAlign=top;whiteSpace=wrap;rounded=0;" parent="Kv2s_iUI0MM-Mi1fy_hT-1" vertex="1">
                    <mxGeometry y="40" width="200" height="40" as="geometry"/>
                </mxCell>
                <mxCell id="q5KxOoT1VR1R5z1FJ6g6-1" value="User" style="swimlane;startSize=40;" parent="1" vertex="1">
                    <mxGeometry x="600" y="520" width="200" height="80" as="geometry">
                        <mxRectangle x="260" y="170" width="100" height="40" as="alternateBounds"/>
                    </mxGeometry>
                </mxCell>
                <mxCell id="q5KxOoT1VR1R5z1FJ6g6-2" value="&lt;font style=&quot;&quot;&gt;&lt;br&gt;&lt;/font&gt;" style="text;html=1;strokeColor=none;fillColor=none;align=left;verticalAlign=top;whiteSpace=wrap;rounded=0;" parent="q5KxOoT1VR1R5z1FJ6g6-1" vertex="1">
                    <mxGeometry y="40" width="200" height="40" as="geometry"/>
                </mxCell>
                <mxCell id="q5KxOoT1VR1R5z1FJ6g6-3" value="login.html" style="swimlane;startSize=40;" parent="1" vertex="1">
                    <mxGeometry y="360" width="200" height="80" as="geometry">
                        <mxRectangle x="260" y="170" width="100" height="40" as="alternateBounds"/>
                    </mxGeometry>
                </mxCell>
                <mxCell id="q5KxOoT1VR1R5z1FJ6g6-4" value="&lt;font style=&quot;&quot;&gt;&lt;br&gt;&lt;/font&gt;" style="text;html=1;strokeColor=none;fillColor=none;align=left;verticalAlign=top;whiteSpace=wrap;rounded=0;" parent="q5KxOoT1VR1R5z1FJ6g6-3" vertex="1">
                    <mxGeometry y="40" width="200" height="40" as="geometry"/>
                </mxCell>
                <mxCell id="q5KxOoT1VR1R5z1FJ6g6-5" style="edgeStyle=none;html=1;exitX=1;exitY=0;exitDx=0;exitDy=0;entryX=0;entryY=0.25;entryDx=0;entryDy=0;fontFamily=Helvetica;" parent="1" source="q5KxOoT1VR1R5z1FJ6g6-4" target="9R4VHJNBQ8q8rERMfp5s-20" edge="1">
                    <mxGeometry relative="1" as="geometry"/>
                </mxCell>
                <mxCell id="q5KxOoT1VR1R5z1FJ6g6-10" style="edgeStyle=none;html=1;exitX=1;exitY=0;exitDx=0;exitDy=0;entryX=0;entryY=0;entryDx=0;entryDy=0;fontFamily=Helvetica;" parent="1" source="9R4VHJNBQ8q8rERMfp5s-21" target="Kv2s_iUI0MM-Mi1fy_hT-2" edge="1">
                    <mxGeometry relative="1" as="geometry"/>
                </mxCell>
                <mxCell id="GEg14cSJfnCCsvcRNE9G-1" style="edgeStyle=none;html=1;exitX=1;exitY=0.5;exitDx=0;exitDy=0;entryX=0;entryY=0;entryDx=0;entryDy=0;fontFamily=Helvetica;" parent="1" source="9R4VHJNBQ8q8rERMfp5s-21" target="q5KxOoT1VR1R5z1FJ6g6-2" edge="1">
                    <mxGeometry relative="1" as="geometry"/>
                </mxCell>
                <mxCell id="GEg14cSJfnCCsvcRNE9G-2" value="UserRepository" style="swimlane;startSize=40;" parent="1" vertex="1">
                    <mxGeometry x="600" y="120" width="200" height="160" as="geometry">
                        <mxRectangle x="260" y="170" width="100" height="40" as="alternateBounds"/>
                    </mxGeometry>
                </mxCell>
                <mxCell id="GEg14cSJfnCCsvcRNE9G-3" value="&lt;font style=&quot;font-size: 14px;&quot;&gt;findByEnail(String email):User&lt;br&gt;&lt;/font&gt;" style="text;html=1;strokeColor=none;fillColor=none;align=left;verticalAlign=top;whiteSpace=wrap;rounded=0;" parent="GEg14cSJfnCCsvcRNE9G-2" vertex="1">
                    <mxGeometry y="40" width="200" height="110" as="geometry"/>
                </mxCell>
                <mxCell id="FOt1ARXQcaf5DIA-SUe--1" value="showListController" style="swimlane;startSize=40;" parent="1" vertex="1">
                    <mxGeometry y="480" width="200" height="80" as="geometry">
                        <mxRectangle x="260" y="170" width="100" height="40" as="alternateBounds"/>
                    </mxGeometry>
                </mxCell>
                <mxCell id="FOt1ARXQcaf5DIA-SUe--2" value="&lt;font style=&quot;&quot;&gt;showList()&lt;br&gt;&lt;/font&gt;" style="text;html=1;strokeColor=none;fillColor=none;align=left;verticalAlign=top;whiteSpace=wrap;rounded=0;" parent="FOt1ARXQcaf5DIA-SUe--1" vertex="1">
                    <mxGeometry y="40" width="200" height="40" as="geometry"/>
                </mxCell>
                <mxCell id="DLZAnzggARrtqYyU8Cf5-1" style="edgeStyle=none;html=1;exitX=0;exitY=0.75;exitDx=0;exitDy=0;entryX=1;entryY=0;entryDx=0;entryDy=0;fontFamily=Helvetica;" parent="1" source="9R4VHJNBQ8q8rERMfp5s-21" target="FOt1ARXQcaf5DIA-SUe--2" edge="1">
                    <mxGeometry relative="1" as="geometry"/>
                </mxCell>
                <mxCell id="BBCyD3tEiFFk3RQeWLNs-3" style="edgeStyle=none;html=1;exitX=1;exitY=0.5;exitDx=0;exitDy=0;entryX=1;entryY=0;entryDx=0;entryDy=0;fontFamily=Helvetica;" parent="1" source="GEg14cSJfnCCsvcRNE9G-3" target="q5KxOoT1VR1R5z1FJ6g6-2" edge="1">
                    <mxGeometry relative="1" as="geometry">
                        <Array as="points">
                            <mxPoint x="820" y="215"/>
                            <mxPoint x="820" y="550"/>
                        </Array>
                    </mxGeometry>
                </mxCell>
            </root>
        </mxGraphModel>
    </diagram>
    <diagram id="YVaQOg9upIBC-c1kROzh" name="1-3.商品一覧を表示(検索)する">
        <mxGraphModel grid="1" page="1" gridSize="10" guides="1" tooltips="1" connect="1" arrows="1" fold="1" pageScale="1" pageWidth="827" pageHeight="1169" math="0" shadow="0">
            <root>
                <mxCell id="0"/>
                <mxCell id="1" parent="0"/>
                <mxCell id="z08IPFVMHpxO-CvLe4AB-4" style="edgeStyle=none;html=1;exitX=0.5;exitY=0;exitDx=0;exitDy=0;entryX=0.5;entryY=1;entryDx=0;entryDy=0;dashed=1;strokeColor=default;startArrow=classic;startFill=1;endArrow=none;endFill=0;" parent="1" source="z08IPFVMHpxO-CvLe4AB-1" target="Rqj4whR5VtbswsvFQFc8-2" edge="1">
                    <mxGeometry relative="1" as="geometry"/>
                </mxCell>
                <mxCell id="Rqj4whR5VtbswsvFQFc8-2" value="ShowItemListService" style="swimlane;whiteSpace=wrap;html=1;startSize=40;" parent="1" vertex="1">
                    <mxGeometry x="295" y="280" width="285" height="110" as="geometry"/>
                </mxCell>
                <mxCell id="8NG05l4nCbTxqk8kX_qs-1" value="showItemList(name : String): List&amp;lt;Item&amp;gt;" style="text;html=1;strokeColor=none;fillColor=none;align=left;verticalAlign=middle;whiteSpace=wrap;rounded=0;" parent="Rqj4whR5VtbswsvFQFc8-2" vertex="1">
                    <mxGeometry x="11" y="35" width="215" height="40" as="geometry"/>
                </mxCell>
                <mxCell id="Sg5uprEXB33EmuuWmgJI-13" style="edgeStyle=none;html=1;exitX=1;exitY=0.5;exitDx=0;exitDy=0;entryX=0;entryY=0.5;entryDx=0;entryDy=0;dashed=1;" parent="1" source="Sg5uprEXB33EmuuWmgJI-10" target="Rqj4whR5VtbswsvFQFc8-2" edge="1">
                    <mxGeometry relative="1" as="geometry"/>
                </mxCell>
                <mxCell id="jDNT5JvgWWGvnArWMw3B-4" style="edgeStyle=none;html=1;exitX=0;exitY=0.75;exitDx=0;exitDy=0;entryX=1;entryY=0.75;entryDx=0;entryDy=0;strokeColor=default;startArrow=classic;startFill=1;endArrow=none;endFill=0;" parent="1" source="Sg5uprEXB33EmuuWmgJI-10" target="OhocuoHRQRPUfhBjlG0--6" edge="1">
                    <mxGeometry relative="1" as="geometry"/>
                </mxCell>
                <mxCell id="jDNT5JvgWWGvnArWMw3B-7" style="edgeStyle=none;html=1;exitX=0.5;exitY=0;exitDx=0;exitDy=0;entryX=1;entryY=0.5;entryDx=0;entryDy=0;strokeColor=default;startArrow=classic;startFill=1;endArrow=none;endFill=0;" parent="1" source="Sg5uprEXB33EmuuWmgJI-10" target="jDNT5JvgWWGvnArWMw3B-5" edge="1">
                    <mxGeometry relative="1" as="geometry"/>
                </mxCell>
                <mxCell id="Sg5uprEXB33EmuuWmgJI-10" value="ShowItemListController" style="swimlane;whiteSpace=wrap;html=1;startSize=40;" parent="1" vertex="1">
                    <mxGeometry x="20" y="280" width="250" height="110" as="geometry"/>
                </mxCell>
                <mxCell id="XtR0Kt11szkaAkh0nAl6-2" value="showItemList(name: String) : String" style="text;html=1;strokeColor=none;fillColor=none;align=center;verticalAlign=middle;whiteSpace=wrap;rounded=0;" parent="Sg5uprEXB33EmuuWmgJI-10" vertex="1">
                    <mxGeometry y="35" width="210" height="40" as="geometry"/>
                </mxCell>
                <mxCell id="z08IPFVMHpxO-CvLe4AB-8" style="edgeStyle=none;html=1;exitX=0;exitY=0.5;exitDx=0;exitDy=0;entryX=0.5;entryY=1;entryDx=0;entryDy=0;dashed=1;strokeColor=default;startArrow=classic;startFill=1;endArrow=none;endFill=0;" parent="1" source="z08IPFVMHpxO-CvLe4AB-1" target="Sg5uprEXB33EmuuWmgJI-10" edge="1">
                    <mxGeometry relative="1" as="geometry"/>
                </mxCell>
                <mxCell id="z08IPFVMHpxO-CvLe4AB-1" value="Item" style="swimlane;whiteSpace=wrap;html=1;startSize=30;" parent="1" vertex="1">
                    <mxGeometry x="337.5" y="440" width="200" height="40" as="geometry"/>
                </mxCell>
                <mxCell id="XtR0Kt11szkaAkh0nAl6-3" style="edgeStyle=none;html=1;exitX=0;exitY=0.5;exitDx=0;exitDy=0;entryX=1;entryY=0.5;entryDx=0;entryDy=0;dashed=1;strokeColor=default;startArrow=classic;startFill=1;endArrow=none;endFill=0;" parent="1" source="XtR0Kt11szkaAkh0nAl6-1" target="Rqj4whR5VtbswsvFQFc8-2" edge="1">
                    <mxGeometry relative="1" as="geometry"/>
                </mxCell>
                <mxCell id="XtR0Kt11szkaAkh0nAl6-1" value="ItemRepository" style="swimlane;whiteSpace=wrap;html=1;startSize=40;" parent="1" vertex="1">
                    <mxGeometry x="660" y="280" width="250" height="110" as="geometry"/>
                </mxCell>
                <mxCell id="jDNT5JvgWWGvnArWMw3B-2" value="&lt;span style=&quot;&quot;&gt;findAll() : List&amp;lt;Item&amp;gt;&lt;/span&gt;&lt;br style=&quot;&quot;&gt;&lt;span style=&quot;&quot;&gt;findByItemName(name: String) :&lt;/span&gt;&amp;nbsp;List&amp;lt;Item&amp;gt;" style="text;html=1;strokeColor=none;fillColor=none;align=left;verticalAlign=middle;whiteSpace=wrap;rounded=0;" parent="XtR0Kt11szkaAkh0nAl6-1" vertex="1">
                    <mxGeometry x="10" y="35" width="280" height="40" as="geometry"/>
                </mxCell>
                <mxCell id="OhocuoHRQRPUfhBjlG0--8" style="edgeStyle=none;html=1;exitX=1;exitY=0.5;exitDx=0;exitDy=0;dashed=1;strokeColor=default;startArrow=classic;startFill=1;endArrow=none;endFill=0;" parent="1" source="OhocuoHRQRPUfhBjlG0--6" edge="1">
                    <mxGeometry relative="1" as="geometry"/>
                </mxCell>
                <mxCell id="OhocuoHRQRPUfhBjlG0--9" style="edgeStyle=none;html=1;exitX=1;exitY=0.5;exitDx=0;exitDy=0;entryX=0;entryY=0.5;entryDx=0;entryDy=0;strokeColor=default;startArrow=classic;startFill=1;endArrow=none;endFill=0;" parent="1" source="OhocuoHRQRPUfhBjlG0--6" target="Sg5uprEXB33EmuuWmgJI-10" edge="1">
                    <mxGeometry relative="1" as="geometry"/>
                </mxCell>
                <mxCell id="OhocuoHRQRPUfhBjlG0--6" value="item_list.html" style="swimlane;whiteSpace=wrap;html=1;startSize=40;" parent="1" vertex="1">
                    <mxGeometry x="-230" y="280" width="200" height="110" as="geometry"/>
                </mxCell>
                <mxCell id="jDNT5JvgWWGvnArWMw3B-5" value="xxx.html" style="swimlane;whiteSpace=wrap;html=1;startSize=40;" parent="1" vertex="1">
                    <mxGeometry x="-230" y="140" width="200" height="110" as="geometry"/>
                </mxCell>
            </root>
        </mxGraphModel>
    </diagram>
    <diagram id="LJhf5Qq5TsddvTkxL_2Y" name="1-4 商品詳細の表示">
        <mxGraphModel dx="1573" dy="1706" grid="1" gridSize="10" guides="1" tooltips="1" connect="1" arrows="1" fold="1" page="1" pageScale="1" pageWidth="827" pageHeight="1169" math="0" shadow="0">
            <root>
                <mxCell id="0"/>
                <mxCell id="1" parent="0"/>
                <mxCell id="-dJ28CHGMq0en_CoWrHb-5" style="edgeStyle=none;html=1;entryX=0.5;entryY=0;entryDx=0;entryDy=0;" parent="1" source="RsUHcPJ8KPYuzNizeXh0-1" target="-dJ28CHGMq0en_CoWrHb-4" edge="1">
                    <mxGeometry relative="1" as="geometry"/>
                </mxCell>
                <mxCell id="-dJ28CHGMq0en_CoWrHb-9" style="edgeStyle=none;html=1;exitX=1;exitY=0.5;exitDx=0;exitDy=0;entryX=-0.002;entryY=-0.138;entryDx=0;entryDy=0;entryPerimeter=0;" parent="1" source="RsUHcPJ8KPYuzNizeXh0-1" target="-dJ28CHGMq0en_CoWrHb-8" edge="1">
                    <mxGeometry relative="1" as="geometry"/>
                </mxCell>
                <mxCell id="-dJ28CHGMq0en_CoWrHb-14" style="edgeStyle=none;html=1;" parent="1" source="RsUHcPJ8KPYuzNizeXh0-1" target="-dJ28CHGMq0en_CoWrHb-13" edge="1">
                    <mxGeometry relative="1" as="geometry"/>
                </mxCell>
                <mxCell id="RsUHcPJ8KPYuzNizeXh0-1" value="ShowItemDetailController" style="swimlane;whiteSpace=wrap;html=1;startSize=58;" parent="1" vertex="1">
                    <mxGeometry x="120" y="344" width="200" height="123" as="geometry"/>
                </mxCell>
                <mxCell id="-dJ28CHGMq0en_CoWrHb-3" value="detail(id: Integer)" style="text;html=1;align=left;verticalAlign=middle;resizable=0;points=[];autosize=1;strokeColor=none;fillColor=none;" parent="RsUHcPJ8KPYuzNizeXh0-1" vertex="1">
                    <mxGeometry y="66" width="108" height="26" as="geometry"/>
                </mxCell>
                <mxCell id="-dJ28CHGMq0en_CoWrHb-1" style="edgeStyle=none;html=1;exitX=1;exitY=0.5;exitDx=0;exitDy=0;entryX=0;entryY=0.5;entryDx=0;entryDy=0;" parent="1" source="A9kvsKe0WGQMceihvHD2-1" target="RsUHcPJ8KPYuzNizeXh0-1" edge="1">
                    <mxGeometry relative="1" as="geometry"/>
                </mxCell>
                <mxCell id="A9kvsKe0WGQMceihvHD2-1" value="item_list.html" style="swimlane;whiteSpace=wrap;html=1;startSize=58;" parent="1" vertex="1">
                    <mxGeometry x="-234" y="344" width="200" height="123" as="geometry"/>
                </mxCell>
                <mxCell id="-dJ28CHGMq0en_CoWrHb-2" value="request" style="text;html=1;align=center;verticalAlign=middle;resizable=0;points=[];autosize=1;strokeColor=none;fillColor=none;" parent="1" vertex="1">
                    <mxGeometry x="5" y="371" width="58" height="26" as="geometry"/>
                </mxCell>
                <mxCell id="-dJ28CHGMq0en_CoWrHb-4" value="item_detail.html" style="swimlane;whiteSpace=wrap;html=1;startSize=58;" parent="1" vertex="1">
                    <mxGeometry x="-58" y="628" width="200" height="123" as="geometry"/>
                </mxCell>
                <mxCell id="-dJ28CHGMq0en_CoWrHb-6" value="forward" style="text;html=1;align=center;verticalAlign=middle;resizable=0;points=[];autosize=1;strokeColor=none;fillColor=none;" parent="1" vertex="1">
                    <mxGeometry x="102" y="539" width="58" height="26" as="geometry"/>
                </mxCell>
                <mxCell id="-dJ28CHGMq0en_CoWrHb-12" style="edgeStyle=none;html=1;entryX=0;entryY=0.5;entryDx=0;entryDy=0;" parent="1" source="-dJ28CHGMq0en_CoWrHb-7" target="-dJ28CHGMq0en_CoWrHb-10" edge="1">
                    <mxGeometry relative="1" as="geometry"/>
                </mxCell>
                <mxCell id="-dJ28CHGMq0en_CoWrHb-15" style="edgeStyle=none;html=1;entryX=0.5;entryY=0;entryDx=0;entryDy=0;" parent="1" source="-dJ28CHGMq0en_CoWrHb-7" target="-dJ28CHGMq0en_CoWrHb-13" edge="1">
                    <mxGeometry relative="1" as="geometry"/>
                </mxCell>
                <mxCell id="LMN3x3vMiP7TJiPrCmoe-3" style="edgeStyle=none;html=1;entryX=0;entryY=0.5;entryDx=0;entryDy=0;" parent="1" source="-dJ28CHGMq0en_CoWrHb-7" target="LMN3x3vMiP7TJiPrCmoe-1" edge="1">
                    <mxGeometry relative="1" as="geometry"/>
                </mxCell>
                <mxCell id="LMN3x3vMiP7TJiPrCmoe-6" style="edgeStyle=none;html=1;entryX=0.5;entryY=1;entryDx=0;entryDy=0;" parent="1" source="-dJ28CHGMq0en_CoWrHb-7" target="LMN3x3vMiP7TJiPrCmoe-4" edge="1">
                    <mxGeometry relative="1" as="geometry"/>
                </mxCell>
                <mxCell id="-dJ28CHGMq0en_CoWrHb-7" value="ShowItemDetailService" style="swimlane;whiteSpace=wrap;html=1;startSize=58;" parent="1" vertex="1">
                    <mxGeometry x="408" y="344" width="200" height="123" as="geometry"/>
                </mxCell>
                <mxCell id="-dJ28CHGMq0en_CoWrHb-8" value="showItem(id: Integer): Item" style="text;html=1;align=left;verticalAlign=middle;resizable=0;points=[];autosize=1;strokeColor=none;fillColor=none;" parent="-dJ28CHGMq0en_CoWrHb-7" vertex="1">
                    <mxGeometry y="66" width="161" height="26" as="geometry"/>
                </mxCell>
                <mxCell id="-dJ28CHGMq0en_CoWrHb-16" style="edgeStyle=none;html=1;entryX=0.799;entryY=0.008;entryDx=0;entryDy=0;entryPerimeter=0;" parent="1" source="-dJ28CHGMq0en_CoWrHb-10" target="-dJ28CHGMq0en_CoWrHb-13" edge="1">
                    <mxGeometry relative="1" as="geometry"/>
                </mxCell>
                <mxCell id="-dJ28CHGMq0en_CoWrHb-10" value="ItemRepository" style="swimlane;whiteSpace=wrap;html=1;startSize=58;" parent="1" vertex="1">
                    <mxGeometry x="680" y="344" width="200" height="123" as="geometry"/>
                </mxCell>
                <mxCell id="-dJ28CHGMq0en_CoWrHb-11" value="findById(id: Integer): Item" style="text;html=1;align=left;verticalAlign=middle;resizable=0;points=[];autosize=1;strokeColor=none;fillColor=none;" parent="-dJ28CHGMq0en_CoWrHb-10" vertex="1">
                    <mxGeometry y="66" width="153" height="26" as="geometry"/>
                </mxCell>
                <mxCell id="-dJ28CHGMq0en_CoWrHb-13" value="Item" style="swimlane;whiteSpace=wrap;html=1;startSize=58;" parent="1" vertex="1">
                    <mxGeometry x="408" y="591" width="200" height="123" as="geometry"/>
                </mxCell>
                <mxCell id="LMN3x3vMiP7TJiPrCmoe-5" style="edgeStyle=none;html=1;entryX=1;entryY=0.5;entryDx=0;entryDy=0;" parent="1" source="LMN3x3vMiP7TJiPrCmoe-1" target="LMN3x3vMiP7TJiPrCmoe-4" edge="1">
                    <mxGeometry relative="1" as="geometry"/>
                </mxCell>
                <mxCell id="LMN3x3vMiP7TJiPrCmoe-1" value="ToppingRepository" style="swimlane;whiteSpace=wrap;html=1;startSize=58;" parent="1" vertex="1">
                    <mxGeometry x="680" y="133" width="200" height="123" as="geometry"/>
                </mxCell>
                <mxCell id="LMN3x3vMiP7TJiPrCmoe-2" value="findAll(): List&amp;lt;Topping&amp;gt;" style="text;html=1;align=left;verticalAlign=middle;resizable=0;points=[];autosize=1;strokeColor=none;fillColor=none;" parent="LMN3x3vMiP7TJiPrCmoe-1" vertex="1">
                    <mxGeometry y="66" width="140" height="26" as="geometry"/>
                </mxCell>
                <mxCell id="LMN3x3vMiP7TJiPrCmoe-4" value="Topping" style="swimlane;whiteSpace=wrap;html=1;startSize=58;" parent="1" vertex="1">
                    <mxGeometry x="408" y="-15" width="200" height="123" as="geometry"/>
                </mxCell>
            </root>
        </mxGraphModel>
    </diagram>
    <diagram name="1-5ショッピングカートに商品を追加/表示/削除" id="smt3DUMcQZzrTRkdEXcj">
        <mxGraphModel dx="1573" dy="499" grid="1" gridSize="10" guides="1" tooltips="1" connect="1" arrows="1" fold="1" page="1" pageScale="1" pageWidth="827" pageHeight="1169" math="0" shadow="0">
            <root>
                <mxCell id="MR9keoifxmBtTFw6Dt4k-0"/>
                <mxCell id="MR9keoifxmBtTFw6Dt4k-1" parent="MR9keoifxmBtTFw6Dt4k-0"/>
                <mxCell id="1Enw9smXNzyiqNJoqn11-2" style="edgeStyle=none;html=1;exitX=1;exitY=0.5;exitDx=0;exitDy=0;" parent="MR9keoifxmBtTFw6Dt4k-1" source="1Enw9smXNzyiqNJoqn11-0" edge="1">
                    <mxGeometry relative="1" as="geometry">
                        <mxPoint x="280" y="410" as="targetPoint"/>
                    </mxGeometry>
                </mxCell>
                <mxCell id="1Enw9smXNzyiqNJoqn11-0" value="item_detail.html" style="swimlane;whiteSpace=wrap;html=1;startSize=58;" parent="MR9keoifxmBtTFw6Dt4k-1" vertex="1">
                    <mxGeometry x="-80" y="350" width="200" height="100" as="geometry"/>
                </mxCell>
                <mxCell id="b1q-po-cuqmQw8TbdbqU-4" style="edgeStyle=none;html=1;exitX=0.5;exitY=0;exitDx=0;exitDy=0;entryX=0.5;entryY=1;entryDx=0;entryDy=0;" parent="MR9keoifxmBtTFw6Dt4k-1" source="1Enw9smXNzyiqNJoqn11-1" target="1Enw9smXNzyiqNJoqn11-4" edge="1">
                    <mxGeometry relative="1" as="geometry"/>
                </mxCell>
                <mxCell id="b1q-po-cuqmQw8TbdbqU-6" style="edgeStyle=none;html=1;exitX=0.25;exitY=1;exitDx=0;exitDy=0;" parent="MR9keoifxmBtTFw6Dt4k-1" source="1Enw9smXNzyiqNJoqn11-1" target="b1q-po-cuqmQw8TbdbqU-5" edge="1">
                    <mxGeometry relative="1" as="geometry"/>
                </mxCell>
                <mxCell id="b1q-po-cuqmQw8TbdbqU-13" style="edgeStyle=none;html=1;exitX=1;exitY=0.5;exitDx=0;exitDy=0;entryX=0;entryY=0.5;entryDx=0;entryDy=0;" parent="MR9keoifxmBtTFw6Dt4k-1" source="1Enw9smXNzyiqNJoqn11-1" target="b1q-po-cuqmQw8TbdbqU-9" edge="1">
                    <mxGeometry relative="1" as="geometry"/>
                </mxCell>
                <mxCell id="1Enw9smXNzyiqNJoqn11-1" value="ShoppingCartController" style="swimlane;whiteSpace=wrap;html=1;startSize=58;" parent="MR9keoifxmBtTFw6Dt4k-1" vertex="1">
                    <mxGeometry x="275" y="350" width="280" height="170" as="geometry"/>
                </mxCell>
                <mxCell id="b1q-po-cuqmQw8TbdbqU-8" value="addItem(form: AddItemForm, userId: Integer)" style="text;html=1;align=left;verticalAlign=middle;resizable=0;points=[];autosize=1;strokeColor=none;fillColor=none;" parent="1Enw9smXNzyiqNJoqn11-1" vertex="1">
                    <mxGeometry y="65" width="260" height="30" as="geometry"/>
                </mxCell>
                <mxCell id="IoxL28Sw9263FZNXiikK-0" value="showItem(userId: Integer)" style="text;html=1;align=left;verticalAlign=middle;resizable=0;points=[];autosize=1;strokeColor=none;fillColor=none;" parent="1Enw9smXNzyiqNJoqn11-1" vertex="1">
                    <mxGeometry y="91" width="160" height="30" as="geometry"/>
                </mxCell>
                <mxCell id="6FoKwToGqFZnZaiE4sUl-0" value="deleteItem(orderItemId: Integer)" style="text;html=1;align=left;verticalAlign=middle;resizable=0;points=[];autosize=1;strokeColor=none;fillColor=none;" parent="1Enw9smXNzyiqNJoqn11-1" vertex="1">
                    <mxGeometry y="121" width="190" height="30" as="geometry"/>
                </mxCell>
                <mxCell id="1Enw9smXNzyiqNJoqn11-3" value="require" style="text;html=1;align=center;verticalAlign=middle;resizable=0;points=[];autosize=1;strokeColor=none;fillColor=none;" parent="MR9keoifxmBtTFw6Dt4k-1" vertex="1">
                    <mxGeometry x="143" y="379" width="55" height="26" as="geometry"/>
                </mxCell>
                <mxCell id="1Enw9smXNzyiqNJoqn11-4" value="AddItemForm" style="swimlane;whiteSpace=wrap;html=1;startSize=58;" parent="MR9keoifxmBtTFw6Dt4k-1" vertex="1">
                    <mxGeometry x="314" y="87" width="200" height="188" as="geometry"/>
                </mxCell>
                <mxCell id="1Enw9smXNzyiqNJoqn11-5" value="size: String" style="text;html=1;align=left;verticalAlign=middle;resizable=0;points=[];autosize=1;strokeColor=none;fillColor=none;" parent="1Enw9smXNzyiqNJoqn11-4" vertex="1">
                    <mxGeometry y="62" width="77" height="26" as="geometry"/>
                </mxCell>
                <mxCell id="b1q-po-cuqmQw8TbdbqU-1" value="toppingIdList: List&amp;lt;Integer&amp;gt;" style="text;html=1;align=left;verticalAlign=middle;resizable=0;points=[];autosize=1;strokeColor=none;fillColor=none;" parent="1Enw9smXNzyiqNJoqn11-4" vertex="1">
                    <mxGeometry y="88" width="163" height="26" as="geometry"/>
                </mxCell>
                <mxCell id="b1q-po-cuqmQw8TbdbqU-2" value="quantity: Integer" style="text;html=1;align=left;verticalAlign=middle;resizable=0;points=[];autosize=1;strokeColor=none;fillColor=none;" parent="1Enw9smXNzyiqNJoqn11-4" vertex="1">
                    <mxGeometry y="114" width="104" height="26" as="geometry"/>
                </mxCell>
                <mxCell id="b1q-po-cuqmQw8TbdbqU-3" value="ItemId: Integer" style="text;html=1;align=left;verticalAlign=middle;resizable=0;points=[];autosize=1;strokeColor=none;fillColor=none;" parent="1Enw9smXNzyiqNJoqn11-4" vertex="1">
                    <mxGeometry y="142" width="95" height="26" as="geometry"/>
                </mxCell>
                <mxCell id="b1q-po-cuqmQw8TbdbqU-5" value="cart_list.html" style="swimlane;whiteSpace=wrap;html=1;startSize=58;" parent="MR9keoifxmBtTFw6Dt4k-1" vertex="1">
                    <mxGeometry x="-55" y="541" width="200" height="100" as="geometry"/>
                </mxCell>
                <mxCell id="b1q-po-cuqmQw8TbdbqU-7" value="forward" style="text;html=1;align=center;verticalAlign=middle;resizable=0;points=[];autosize=1;strokeColor=none;fillColor=none;" parent="MR9keoifxmBtTFw6Dt4k-1" vertex="1">
                    <mxGeometry x="150" y="506" width="58" height="26" as="geometry"/>
                </mxCell>
                <mxCell id="b1q-po-cuqmQw8TbdbqU-14" style="edgeStyle=none;html=1;exitX=1;exitY=0.5;exitDx=0;exitDy=0;entryX=0;entryY=0.5;entryDx=0;entryDy=0;" parent="MR9keoifxmBtTFw6Dt4k-1" source="b1q-po-cuqmQw8TbdbqU-9" target="b1q-po-cuqmQw8TbdbqU-11" edge="1">
                    <mxGeometry relative="1" as="geometry"/>
                </mxCell>
                <mxCell id="b1q-po-cuqmQw8TbdbqU-17" style="edgeStyle=none;html=1;entryX=0;entryY=0.25;entryDx=0;entryDy=0;" parent="MR9keoifxmBtTFw6Dt4k-1" source="b1q-po-cuqmQw8TbdbqU-9" target="b1q-po-cuqmQw8TbdbqU-15" edge="1">
                    <mxGeometry relative="1" as="geometry"/>
                </mxCell>
                <mxCell id="OTt6TFgipbtRgPgzP1rj-7" style="edgeStyle=none;html=1;entryX=0.5;entryY=0;entryDx=0;entryDy=0;" parent="MR9keoifxmBtTFw6Dt4k-1" source="b1q-po-cuqmQw8TbdbqU-9" target="OTt6TFgipbtRgPgzP1rj-4" edge="1">
                    <mxGeometry relative="1" as="geometry"/>
                </mxCell>
                <mxCell id="OTt6TFgipbtRgPgzP1rj-8" style="edgeStyle=none;html=1;entryX=0.5;entryY=0;entryDx=0;entryDy=0;" parent="MR9keoifxmBtTFw6Dt4k-1" source="b1q-po-cuqmQw8TbdbqU-9" target="OTt6TFgipbtRgPgzP1rj-3" edge="1">
                    <mxGeometry relative="1" as="geometry"/>
                </mxCell>
                <mxCell id="6FoKwToGqFZnZaiE4sUl-8" style="edgeStyle=none;html=1;" parent="MR9keoifxmBtTFw6Dt4k-1" source="b1q-po-cuqmQw8TbdbqU-9" edge="1">
                    <mxGeometry relative="1" as="geometry">
                        <mxPoint x="1090" y="290" as="targetPoint"/>
                    </mxGeometry>
                </mxCell>
                <mxCell id="6FoKwToGqFZnZaiE4sUl-9" style="edgeStyle=none;html=1;entryX=0.25;entryY=1;entryDx=0;entryDy=0;" parent="MR9keoifxmBtTFw6Dt4k-1" source="b1q-po-cuqmQw8TbdbqU-9" target="6FoKwToGqFZnZaiE4sUl-6" edge="1">
                    <mxGeometry relative="1" as="geometry">
                        <mxPoint x="820" y="280" as="targetPoint"/>
                    </mxGeometry>
                </mxCell>
                <mxCell id="b1q-po-cuqmQw8TbdbqU-9" value="ShoppingCartService" style="swimlane;whiteSpace=wrap;html=1;startSize=58;" parent="MR9keoifxmBtTFw6Dt4k-1" vertex="1">
                    <mxGeometry x="596" y="350" width="314" height="180" as="geometry"/>
                </mxCell>
                <mxCell id="b1q-po-cuqmQw8TbdbqU-10" value="searchOrder(userId: Integer): Order" style="text;html=1;align=left;verticalAlign=middle;resizable=0;points=[];autosize=1;strokeColor=none;fillColor=none;" parent="b1q-po-cuqmQw8TbdbqU-9" vertex="1">
                    <mxGeometry y="67" width="207" height="26" as="geometry"/>
                </mxCell>
                <mxCell id="OTt6TFgipbtRgPgzP1rj-0" value="addItem(userId: Integer, form: AddItemForm): Order" style="text;html=1;align=left;verticalAlign=middle;resizable=0;points=[];autosize=1;strokeColor=none;fillColor=none;" parent="b1q-po-cuqmQw8TbdbqU-9" vertex="1">
                    <mxGeometry y="91" width="300" height="30" as="geometry"/>
                </mxCell>
                <mxCell id="6FoKwToGqFZnZaiE4sUl-1" value="deleteItem(orderItemId): void" style="text;html=1;align=left;verticalAlign=middle;resizable=0;points=[];autosize=1;strokeColor=none;fillColor=none;" parent="b1q-po-cuqmQw8TbdbqU-9" vertex="1">
                    <mxGeometry y="121" width="180" height="30" as="geometry"/>
                </mxCell>
                <mxCell id="b1q-po-cuqmQw8TbdbqU-11" value="OrderRepository" style="swimlane;whiteSpace=wrap;html=1;startSize=58;" parent="MR9keoifxmBtTFw6Dt4k-1" vertex="1">
                    <mxGeometry x="1170" y="379" width="352" height="130" as="geometry"/>
                </mxCell>
                <mxCell id="b1q-po-cuqmQw8TbdbqU-12" value="insert(order: Order): Integer" style="text;html=1;align=left;verticalAlign=middle;resizable=0;points=[];autosize=1;strokeColor=none;fillColor=none;" parent="b1q-po-cuqmQw8TbdbqU-11" vertex="1">
                    <mxGeometry y="65" width="170" height="30" as="geometry"/>
                </mxCell>
                <mxCell id="b1q-po-cuqmQw8TbdbqU-18" value="findByUserIdAndStatus(userId: Integer, status: Integer): Order" style="text;html=1;align=left;verticalAlign=middle;resizable=0;points=[];autosize=1;strokeColor=none;fillColor=none;" parent="b1q-po-cuqmQw8TbdbqU-11" vertex="1">
                    <mxGeometry y="91" width="350" height="30" as="geometry"/>
                </mxCell>
                <mxCell id="OTt6TFgipbtRgPgzP1rj-6" style="edgeStyle=none;html=1;entryX=1.003;entryY=0.366;entryDx=0;entryDy=0;entryPerimeter=0;" parent="MR9keoifxmBtTFw6Dt4k-1" source="b1q-po-cuqmQw8TbdbqU-15" target="OTt6TFgipbtRgPgzP1rj-4" edge="1">
                    <mxGeometry relative="1" as="geometry"/>
                </mxCell>
                <mxCell id="b1q-po-cuqmQw8TbdbqU-15" value="OrderItemRepository" style="swimlane;whiteSpace=wrap;html=1;startSize=58;" parent="MR9keoifxmBtTFw6Dt4k-1" vertex="1">
                    <mxGeometry x="1062" y="550" width="358" height="127" as="geometry"/>
                </mxCell>
                <mxCell id="b1q-po-cuqmQw8TbdbqU-16" value="insert(orderItem: OrderItem): Integer" style="text;html=1;align=left;verticalAlign=middle;resizable=0;points=[];autosize=1;strokeColor=none;fillColor=none;" parent="b1q-po-cuqmQw8TbdbqU-15" vertex="1">
                    <mxGeometry y="65" width="220" height="30" as="geometry"/>
                </mxCell>
                <mxCell id="6FoKwToGqFZnZaiE4sUl-2" value="deleteById(id: Integer): void" style="text;html=1;align=left;verticalAlign=middle;resizable=0;points=[];autosize=1;strokeColor=none;fillColor=none;" parent="b1q-po-cuqmQw8TbdbqU-15" vertex="1">
                    <mxGeometry y="95" width="170" height="30" as="geometry"/>
                </mxCell>
                <mxCell id="OTt6TFgipbtRgPgzP1rj-3" value="Order" style="swimlane;whiteSpace=wrap;html=1;startSize=58;" parent="MR9keoifxmBtTFw6Dt4k-1" vertex="1">
                    <mxGeometry x="467" y="649" width="200" height="100" as="geometry"/>
                </mxCell>
                <mxCell id="OTt6TFgipbtRgPgzP1rj-4" value="OrderItem" style="swimlane;whiteSpace=wrap;html=1;startSize=58;" parent="MR9keoifxmBtTFw6Dt4k-1" vertex="1">
                    <mxGeometry x="707" y="649" width="200" height="100" as="geometry"/>
                </mxCell>
                <mxCell id="6FoKwToGqFZnZaiE4sUl-3" value="OrderToppingRepository" style="swimlane;whiteSpace=wrap;html=1;startSize=58;" parent="MR9keoifxmBtTFw6Dt4k-1" vertex="1">
                    <mxGeometry x="1090" y="170" width="352" height="130" as="geometry"/>
                </mxCell>
                <mxCell id="6FoKwToGqFZnZaiE4sUl-4" value="insert(orderTopping: OrderTopping): void" style="text;html=1;align=left;verticalAlign=middle;resizable=0;points=[];autosize=1;strokeColor=none;fillColor=none;" parent="6FoKwToGqFZnZaiE4sUl-3" vertex="1">
                    <mxGeometry y="65" width="240" height="30" as="geometry"/>
                </mxCell>
                <mxCell id="6FoKwToGqFZnZaiE4sUl-6" value="OrderTopping" style="swimlane;whiteSpace=wrap;html=1;startSize=58;" parent="MR9keoifxmBtTFw6Dt4k-1" vertex="1">
                    <mxGeometry x="790" y="185" width="200" height="100" as="geometry"/>
                </mxCell>
                <mxCell id="6FoKwToGqFZnZaiE4sUl-7" style="edgeStyle=none;html=1;" parent="MR9keoifxmBtTFw6Dt4k-1" source="6FoKwToGqFZnZaiE4sUl-4" target="6FoKwToGqFZnZaiE4sUl-6" edge="1">
                    <mxGeometry relative="1" as="geometry"/>
                </mxCell>
            </root>
        </mxGraphModel>
    </diagram>
    <diagram name="1-6.注文確認画面を表示する" id="4uFH0EgZvqyOCqzYKXCv">
        <mxGraphModel grid="1" page="1" gridSize="10" guides="1" tooltips="1" connect="1" arrows="1" fold="1" pageScale="1" pageWidth="827" pageHeight="1169" math="0" shadow="0">
            <root>
                <mxCell id="VjBRk_6e-DPvgvOqOBXh-0"/>
                <mxCell id="VjBRk_6e-DPvgvOqOBXh-1" parent="VjBRk_6e-DPvgvOqOBXh-0"/>
                <mxCell id="VjBRk_6e-DPvgvOqOBXh-2" style="edgeStyle=none;html=1;exitX=0.5;exitY=0;exitDx=0;exitDy=0;entryX=0.5;entryY=1;entryDx=0;entryDy=0;dashed=1;strokeColor=default;startArrow=classic;startFill=1;endArrow=none;endFill=0;" parent="VjBRk_6e-DPvgvOqOBXh-1" source="VjBRk_6e-DPvgvOqOBXh-9" target="VjBRk_6e-DPvgvOqOBXh-3" edge="1">
                    <mxGeometry relative="1" as="geometry"/>
                </mxCell>
                <mxCell id="5Zjxpw_94Gi2nBweTEnl-0" style="edgeStyle=none;html=1;exitX=1;exitY=0.5;exitDx=0;exitDy=0;entryX=0;entryY=0.5;entryDx=0;entryDy=0;dashed=1;" edge="1" parent="VjBRk_6e-DPvgvOqOBXh-1" source="VjBRk_6e-DPvgvOqOBXh-3" target="pryRhbLC_Yxy5iifS82q-0">
                    <mxGeometry relative="1" as="geometry"/>
                </mxCell>
                <mxCell id="VjBRk_6e-DPvgvOqOBXh-3" value="OrderConfirmService" style="swimlane;whiteSpace=wrap;html=1;startSize=40;" parent="VjBRk_6e-DPvgvOqOBXh-1" vertex="1">
                    <mxGeometry x="400" y="280" width="285" height="110" as="geometry"/>
                </mxCell>
                <mxCell id="VjBRk_6e-DPvgvOqOBXh-4" value="showConfirmOrder(orderId : Integer): Order" style="text;html=1;strokeColor=none;fillColor=none;align=center;verticalAlign=middle;whiteSpace=wrap;rounded=0;" parent="VjBRk_6e-DPvgvOqOBXh-3" vertex="1">
                    <mxGeometry y="35" width="270" height="40" as="geometry"/>
                </mxCell>
                <mxCell id="VjBRk_6e-DPvgvOqOBXh-5" style="edgeStyle=none;html=1;exitX=1;exitY=0.5;exitDx=0;exitDy=0;entryX=0;entryY=0.5;entryDx=0;entryDy=0;dashed=1;" parent="VjBRk_6e-DPvgvOqOBXh-1" source="VjBRk_6e-DPvgvOqOBXh-6" target="VjBRk_6e-DPvgvOqOBXh-3" edge="1">
                    <mxGeometry relative="1" as="geometry"/>
                </mxCell>
                <mxCell id="VjBRk_6e-DPvgvOqOBXh-6" value="OrderConfirmController" style="swimlane;whiteSpace=wrap;html=1;startSize=40;" parent="VjBRk_6e-DPvgvOqOBXh-1" vertex="1">
                    <mxGeometry x="30" y="280" width="275" height="110" as="geometry"/>
                </mxCell>
                <mxCell id="riCoRLDkT-8ePt7IXUFA-0" value="showConfirmOrder(orderId : Integer): String" style="text;html=1;strokeColor=none;fillColor=none;align=left;verticalAlign=middle;whiteSpace=wrap;rounded=0;" parent="VjBRk_6e-DPvgvOqOBXh-6" vertex="1">
                    <mxGeometry x="10" y="35" width="280" height="40" as="geometry"/>
                </mxCell>
                <mxCell id="VjBRk_6e-DPvgvOqOBXh-8" style="edgeStyle=none;html=1;exitX=0;exitY=0.5;exitDx=0;exitDy=0;entryX=0.5;entryY=1;entryDx=0;entryDy=0;dashed=1;strokeColor=default;startArrow=classic;startFill=1;endArrow=none;endFill=0;" parent="VjBRk_6e-DPvgvOqOBXh-1" source="VjBRk_6e-DPvgvOqOBXh-9" target="VjBRk_6e-DPvgvOqOBXh-6" edge="1">
                    <mxGeometry relative="1" as="geometry"/>
                </mxCell>
                <mxCell id="VjBRk_6e-DPvgvOqOBXh-9" value="Order" style="swimlane;whiteSpace=wrap;html=1;startSize=30;" parent="VjBRk_6e-DPvgvOqOBXh-1" vertex="1">
                    <mxGeometry x="337.5" y="440" width="200" height="40" as="geometry"/>
                </mxCell>
                <mxCell id="VjBRk_6e-DPvgvOqOBXh-13" style="edgeStyle=none;html=1;exitX=1;exitY=0.5;exitDx=0;exitDy=0;dashed=1;strokeColor=default;startArrow=classic;startFill=1;endArrow=none;endFill=0;" parent="VjBRk_6e-DPvgvOqOBXh-1" source="VjBRk_6e-DPvgvOqOBXh-15" edge="1">
                    <mxGeometry relative="1" as="geometry"/>
                </mxCell>
                <mxCell id="VjBRk_6e-DPvgvOqOBXh-14" style="edgeStyle=none;html=1;exitX=1;exitY=0.5;exitDx=0;exitDy=0;entryX=0;entryY=0.5;entryDx=0;entryDy=0;strokeColor=default;startArrow=classic;startFill=1;endArrow=none;endFill=0;" parent="VjBRk_6e-DPvgvOqOBXh-1" source="VjBRk_6e-DPvgvOqOBXh-15" target="VjBRk_6e-DPvgvOqOBXh-6" edge="1">
                    <mxGeometry relative="1" as="geometry"/>
                </mxCell>
                <mxCell id="VjBRk_6e-DPvgvOqOBXh-15" value="order_confirm.html" style="swimlane;whiteSpace=wrap;html=1;startSize=40;" parent="VjBRk_6e-DPvgvOqOBXh-1" vertex="1">
                    <mxGeometry x="-230" y="280" width="200" height="110" as="geometry"/>
                </mxCell>
                <mxCell id="pryRhbLC_Yxy5iifS82q-0" value="OrderRepository" style="swimlane;whiteSpace=wrap;html=1;startSize=40;" parent="VjBRk_6e-DPvgvOqOBXh-1" vertex="1">
                    <mxGeometry x="760" y="280" width="285" height="110" as="geometry"/>
                </mxCell>
                <mxCell id="PqpES_sF8SSIb6IpsYsI-0" value="load(id : Integer): Order" style="text;html=1;strokeColor=none;fillColor=none;align=center;verticalAlign=middle;whiteSpace=wrap;rounded=0;" vertex="1" parent="pryRhbLC_Yxy5iifS82q-0">
                    <mxGeometry y="30" width="270" height="40" as="geometry"/>
                </mxCell>
            </root>
        </mxGraphModel>
    </diagram>
    <diagram id="a0PDNgHVLwsbYnSCpbM3" name="1-7 注文をする">
        <mxGraphModel grid="1" page="1" gridSize="10" guides="1" tooltips="1" connect="1" arrows="1" fold="1" pageScale="1" pageWidth="827" pageHeight="1169" math="0" shadow="0">
            <root>
                <mxCell id="0"/>
                <mxCell id="1" parent="0"/>
                <mxCell id="xQn6pMlFCNgAA8GERKEv-1" value="OrderForm" style="swimlane;startSize=40;" parent="1" vertex="1">
                    <mxGeometry x="280" width="200" height="310" as="geometry">
                        <mxRectangle x="260" y="170" width="100" height="40" as="alternateBounds"/>
                    </mxGeometry>
                </mxCell>
                <mxCell id="xQn6pMlFCNgAA8GERKEv-2" value="&lt;p style=&quot;line-height: 1.38; margin-top: 0pt; margin-bottom: 0pt;&quot; dir=&quot;ltr&quot;&gt;&lt;span style=&quot;color: rgb(240, 239, 226); background-color: transparent; font-family: Arial, sans-serif;&quot;&gt;orderId : Integer&lt;/span&gt;&lt;/p&gt;&lt;p style=&quot;line-height: 1.38; margin-top: 0pt; margin-bottom: 0pt;&quot; dir=&quot;ltr&quot;&gt;&lt;span style=&quot;color: rgb(240, 239, 226); background-color: transparent; font-family: Arial, sans-serif;&quot;&gt;- destinationName：String&lt;/span&gt;&lt;br&gt;&lt;/p&gt;&lt;p style=&quot;line-height: 1.38; margin-top: 0pt; margin-bottom: 0pt;&quot; dir=&quot;ltr&quot;&gt;&lt;span style=&quot;font-family: Arial, sans-serif; background-color: transparent; font-variant-numeric: normal; font-variant-east-asian: normal; font-variant-alternates: normal; font-variant-position: normal; vertical-align: baseline;&quot;&gt;&lt;font color=&quot;#f0efe2&quot;&gt;- destinationEmail：String&lt;/font&gt;&lt;/span&gt;&lt;/p&gt;&lt;p style=&quot;line-height: 1.38; margin-top: 0pt; margin-bottom: 0pt;&quot; dir=&quot;ltr&quot;&gt;&lt;span style=&quot;font-family: Arial, sans-serif; background-color: transparent; font-variant-numeric: normal; font-variant-east-asian: normal; font-variant-alternates: normal; font-variant-position: normal; vertical-align: baseline;&quot;&gt;&lt;font color=&quot;#f0efe2&quot;&gt;- destinationZipcode：String&lt;/font&gt;&lt;/span&gt;&lt;/p&gt;&lt;p style=&quot;line-height: 1.38; margin-top: 0pt; margin-bottom: 0pt;&quot; dir=&quot;ltr&quot;&gt;&lt;span style=&quot;font-family: Arial, sans-serif; background-color: transparent; font-variant-numeric: normal; font-variant-east-asian: normal; font-variant-alternates: normal; font-variant-position: normal; vertical-align: baseline;&quot;&gt;&lt;font color=&quot;#f0efe2&quot;&gt;- destinationPrefecture：String&lt;/font&gt;&lt;/span&gt;&lt;/p&gt;&lt;p style=&quot;line-height: 1.38; margin-top: 0pt; margin-bottom: 0pt;&quot; dir=&quot;ltr&quot;&gt;&lt;span style=&quot;font-family: Arial, sans-serif; background-color: transparent; font-variant-numeric: normal; font-variant-east-asian: normal; font-variant-alternates: normal; font-variant-position: normal; vertical-align: baseline;&quot;&gt;&lt;font color=&quot;#f0efe2&quot;&gt;- destinationMunicipalities：String&lt;/font&gt;&lt;/span&gt;&lt;/p&gt;&lt;p style=&quot;line-height: 1.38; margin-top: 0pt; margin-bottom: 0pt;&quot; dir=&quot;ltr&quot;&gt;&lt;span style=&quot;font-family: Arial, sans-serif; background-color: transparent; font-variant-numeric: normal; font-variant-east-asian: normal; font-variant-alternates: normal; font-variant-position: normal; vertical-align: baseline;&quot;&gt;&lt;font color=&quot;#f0efe2&quot;&gt;- destinationAddress：String&lt;/font&gt;&lt;/span&gt;&lt;/p&gt;&lt;p style=&quot;line-height: 1.38; margin-top: 0pt; margin-bottom: 0pt;&quot; dir=&quot;ltr&quot;&gt;&lt;span style=&quot;font-family: Arial, sans-serif; background-color: transparent; font-variant-numeric: normal; font-variant-east-asian: normal; font-variant-alternates: normal; font-variant-position: normal; vertical-align: baseline;&quot;&gt;&lt;font color=&quot;#f0efe2&quot;&gt;- destinationTel：String&lt;/font&gt;&lt;/span&gt;&lt;/p&gt;&lt;p style=&quot;line-height: 1.38; margin-top: 0pt; margin-bottom: 0pt;&quot; dir=&quot;ltr&quot;&gt;&lt;span style=&quot;color: rgb(240, 239, 226); background-color: transparent; font-family: Arial, sans-serif;&quot;&gt;- deliveryTime：String&lt;/span&gt;&lt;br&gt;&lt;/p&gt;&lt;p style=&quot;line-height: 1.38; margin-top: 0pt; margin-bottom: 0pt;&quot; dir=&quot;ltr&quot;&gt;&lt;span style=&quot;font-family: Arial, sans-serif; background-color: transparent; font-variant-numeric: normal; font-variant-east-asian: normal; font-variant-alternates: normal; font-variant-position: normal; vertical-align: baseline;&quot;&gt;&lt;font color=&quot;#f0efe2&quot;&gt;- paymentMethod：Integer&lt;/font&gt;&lt;/span&gt;&lt;/p&gt;" style="text;html=1;strokeColor=none;fillColor=none;align=left;verticalAlign=middle;whiteSpace=wrap;rounded=0;fontSize=14;" parent="xQn6pMlFCNgAA8GERKEv-1" vertex="1">
                    <mxGeometry y="40" width="200" height="270" as="geometry"/>
                </mxCell>
                <mxCell id="xQn6pMlFCNgAA8GERKEv-3" style="edgeStyle=none;html=1;exitX=0.5;exitY=0;exitDx=0;exitDy=0;entryX=0.5;entryY=1;entryDx=0;entryDy=0;fontFamily=Helvetica;" parent="1" source="xQn6pMlFCNgAA8GERKEv-4" target="xQn6pMlFCNgAA8GERKEv-1" edge="1">
                    <mxGeometry relative="1" as="geometry"/>
                </mxCell>
                <mxCell id="xQn6pMlFCNgAA8GERKEv-4" value="OrderController" style="swimlane;startSize=40;" parent="1" vertex="1">
                    <mxGeometry x="280" y="360" width="200" height="100" as="geometry">
                        <mxRectangle x="260" y="170" width="100" height="40" as="alternateBounds"/>
                    </mxGeometry>
                </mxCell>
                <mxCell id="xQn6pMlFCNgAA8GERKEv-5" value="&lt;font style=&quot;font-size: 14px;&quot;&gt;order(OrderForm form):void&lt;br&gt;&lt;/font&gt;" style="text;html=1;strokeColor=none;fillColor=none;align=left;verticalAlign=middle;whiteSpace=wrap;rounded=0;" parent="xQn6pMlFCNgAA8GERKEv-4" vertex="1">
                    <mxGeometry y="40" width="200" height="60" as="geometry"/>
                </mxCell>
                <mxCell id="xQn6pMlFCNgAA8GERKEv-6" style="edgeStyle=none;html=1;exitX=0.5;exitY=0;exitDx=0;exitDy=0;entryX=0.5;entryY=1;entryDx=0;entryDy=0;fontFamily=Helvetica;" parent="1" source="xQn6pMlFCNgAA8GERKEv-8" target="xQn6pMlFCNgAA8GERKEv-17" edge="1">
                    <mxGeometry relative="1" as="geometry"/>
                </mxCell>
                <mxCell id="xQn6pMlFCNgAA8GERKEv-7" style="edgeStyle=none;html=1;exitX=0.5;exitY=1;exitDx=0;exitDy=0;entryX=0.5;entryY=0;entryDx=0;entryDy=0;fontFamily=Helvetica;" parent="1" source="xQn6pMlFCNgAA8GERKEv-8" target="xQn6pMlFCNgAA8GERKEv-10" edge="1">
                    <mxGeometry relative="1" as="geometry"/>
                </mxCell>
                <mxCell id="xQn6pMlFCNgAA8GERKEv-8" value="OrderService" style="swimlane;startSize=40;" parent="1" vertex="1">
                    <mxGeometry x="600" y="360" width="200" height="100" as="geometry">
                        <mxRectangle x="260" y="170" width="100" height="40" as="alternateBounds"/>
                    </mxGeometry>
                </mxCell>
                <mxCell id="xQn6pMlFCNgAA8GERKEv-9" value="&lt;font style=&quot;&quot;&gt;&lt;span style=&quot;font-size: 14px;&quot;&gt;order(Order order):void&lt;/span&gt;&lt;br&gt;&lt;/font&gt;" style="text;html=1;strokeColor=none;fillColor=none;align=left;verticalAlign=middle;whiteSpace=wrap;rounded=0;" parent="xQn6pMlFCNgAA8GERKEv-8" vertex="1">
                    <mxGeometry y="40" width="200" height="60" as="geometry"/>
                </mxCell>
                <mxCell id="xQn6pMlFCNgAA8GERKEv-10" value="Order" style="swimlane;startSize=40;" parent="1" vertex="1">
                    <mxGeometry x="600" y="520" width="200" height="80" as="geometry">
                        <mxRectangle x="260" y="170" width="100" height="40" as="alternateBounds"/>
                    </mxGeometry>
                </mxCell>
                <mxCell id="xQn6pMlFCNgAA8GERKEv-11" value="&lt;font style=&quot;font-size: 14px;&quot;&gt;getTax():int&lt;br&gt;getCalcTotalPrice():int&lt;br&gt;&lt;/font&gt;" style="text;html=1;strokeColor=none;fillColor=none;align=left;verticalAlign=middle;whiteSpace=wrap;rounded=0;" parent="xQn6pMlFCNgAA8GERKEv-10" vertex="1">
                    <mxGeometry y="40" width="200" height="40" as="geometry"/>
                </mxCell>
                <mxCell id="xQn6pMlFCNgAA8GERKEv-12" value="OrderConfirm.html" style="swimlane;startSize=40;" parent="1" vertex="1">
                    <mxGeometry y="360" width="200" height="80" as="geometry">
                        <mxRectangle x="260" y="170" width="100" height="40" as="alternateBounds"/>
                    </mxGeometry>
                </mxCell>
                <mxCell id="xQn6pMlFCNgAA8GERKEv-13" value="&lt;font style=&quot;&quot;&gt;&lt;br&gt;&lt;/font&gt;" style="text;html=1;strokeColor=none;fillColor=none;align=left;verticalAlign=top;whiteSpace=wrap;rounded=0;" parent="xQn6pMlFCNgAA8GERKEv-12" vertex="1">
                    <mxGeometry y="40" width="200" height="40" as="geometry"/>
                </mxCell>
                <mxCell id="xQn6pMlFCNgAA8GERKEv-14" style="edgeStyle=none;html=1;exitX=1;exitY=0;exitDx=0;exitDy=0;entryX=0;entryY=0.25;entryDx=0;entryDy=0;fontFamily=Helvetica;" parent="1" source="xQn6pMlFCNgAA8GERKEv-13" target="xQn6pMlFCNgAA8GERKEv-4" edge="1">
                    <mxGeometry relative="1" as="geometry"/>
                </mxCell>
                <mxCell id="xQn6pMlFCNgAA8GERKEv-15" style="edgeStyle=none;html=1;exitX=1;exitY=0;exitDx=0;exitDy=0;entryX=0;entryY=0;entryDx=0;entryDy=0;fontFamily=Helvetica;" parent="1" source="xQn6pMlFCNgAA8GERKEv-5" target="xQn6pMlFCNgAA8GERKEv-9" edge="1">
                    <mxGeometry relative="1" as="geometry"/>
                </mxCell>
                <mxCell id="xQn6pMlFCNgAA8GERKEv-16" style="edgeStyle=none;html=1;exitX=1;exitY=0.5;exitDx=0;exitDy=0;entryX=0;entryY=0;entryDx=0;entryDy=0;fontFamily=Helvetica;" parent="1" source="xQn6pMlFCNgAA8GERKEv-5" target="xQn6pMlFCNgAA8GERKEv-11" edge="1">
                    <mxGeometry relative="1" as="geometry"/>
                </mxCell>
                <mxCell id="xQn6pMlFCNgAA8GERKEv-17" value="OrderRepository" style="swimlane;startSize=40;" parent="1" vertex="1">
                    <mxGeometry x="600" y="200" width="200" height="80" as="geometry">
                        <mxRectangle x="260" y="170" width="100" height="40" as="alternateBounds"/>
                    </mxGeometry>
                </mxCell>
                <mxCell id="xQn6pMlFCNgAA8GERKEv-18" value="&lt;font style=&quot;font-size: 14px;&quot;&gt;update(Order order):void&lt;br&gt;&lt;/font&gt;" style="text;html=1;strokeColor=none;fillColor=none;align=left;verticalAlign=middle;whiteSpace=wrap;rounded=0;" parent="xQn6pMlFCNgAA8GERKEv-17" vertex="1">
                    <mxGeometry y="40" width="200" height="40" as="geometry"/>
                </mxCell>
                <mxCell id="xQn6pMlFCNgAA8GERKEv-19" value="showListController" style="swimlane;startSize=40;" parent="1" vertex="1">
                    <mxGeometry y="480" width="200" height="80" as="geometry">
                        <mxRectangle x="260" y="170" width="100" height="40" as="alternateBounds"/>
                    </mxGeometry>
                </mxCell>
                <mxCell id="xQn6pMlFCNgAA8GERKEv-20" value="&lt;font style=&quot;font-size: 14px;&quot;&gt;showList()&lt;br style=&quot;font-size: 14px;&quot;&gt;&lt;/font&gt;" style="text;html=1;strokeColor=none;fillColor=none;align=left;verticalAlign=middle;whiteSpace=wrap;rounded=0;fontSize=14;" parent="xQn6pMlFCNgAA8GERKEv-19" vertex="1">
                    <mxGeometry y="40" width="200" height="40" as="geometry"/>
                </mxCell>
                <mxCell id="xQn6pMlFCNgAA8GERKEv-21" style="edgeStyle=none;html=1;exitX=0;exitY=0.75;exitDx=0;exitDy=0;entryX=1;entryY=0;entryDx=0;entryDy=0;fontFamily=Helvetica;" parent="1" source="xQn6pMlFCNgAA8GERKEv-5" target="xQn6pMlFCNgAA8GERKEv-20" edge="1">
                    <mxGeometry relative="1" as="geometry"/>
                </mxCell>
                <mxCell id="xQn6pMlFCNgAA8GERKEv-22" style="edgeStyle=none;html=1;exitX=1;exitY=0.5;exitDx=0;exitDy=0;entryX=1;entryY=0;entryDx=0;entryDy=0;fontFamily=Helvetica;" parent="1" source="xQn6pMlFCNgAA8GERKEv-18" target="xQn6pMlFCNgAA8GERKEv-11" edge="1">
                    <mxGeometry relative="1" as="geometry">
                        <Array as="points">
                            <mxPoint x="820" y="260"/>
                            <mxPoint x="820" y="550"/>
                        </Array>
                    </mxGeometry>
                </mxCell>
                <mxCell id="O_Jx8exErh70YmbbdTf5-1" value="OrderItem" style="swimlane;startSize=40;" vertex="1" parent="1">
                    <mxGeometry x="600" y="640" width="200" height="80" as="geometry">
                        <mxRectangle x="260" y="170" width="100" height="40" as="alternateBounds"/>
                    </mxGeometry>
                </mxCell>
                <mxCell id="O_Jx8exErh70YmbbdTf5-2" value="&lt;font style=&quot;&quot;&gt;&lt;font style=&quot;font-size: 14px;&quot;&gt;getCalcSubTotalPrice():int&lt;/font&gt;&lt;br&gt;&lt;/font&gt;" style="text;html=1;strokeColor=none;fillColor=none;align=left;verticalAlign=middle;whiteSpace=wrap;rounded=0;" vertex="1" parent="O_Jx8exErh70YmbbdTf5-1">
                    <mxGeometry y="40" width="200" height="40" as="geometry"/>
                </mxCell>
                <mxCell id="O_Jx8exErh70YmbbdTf5-4" value="OrderTopping" style="swimlane;startSize=40;" vertex="1" parent="1">
                    <mxGeometry x="600" y="760" width="200" height="80" as="geometry">
                        <mxRectangle x="260" y="170" width="100" height="40" as="alternateBounds"/>
                    </mxGeometry>
                </mxCell>
                <mxCell id="O_Jx8exErh70YmbbdTf5-5" value="&lt;font style=&quot;&quot;&gt;&lt;br&gt;&lt;/font&gt;" style="text;html=1;strokeColor=none;fillColor=none;align=left;verticalAlign=top;whiteSpace=wrap;rounded=0;" vertex="1" parent="O_Jx8exErh70YmbbdTf5-4">
                    <mxGeometry y="40" width="200" height="40" as="geometry"/>
                </mxCell>
                <mxCell id="O_Jx8exErh70YmbbdTf5-6" style="edgeStyle=none;html=1;exitX=0.5;exitY=1;exitDx=0;exitDy=0;entryX=0.5;entryY=0;entryDx=0;entryDy=0;fontColor=#F0EFE2;" edge="1" parent="1" source="xQn6pMlFCNgAA8GERKEv-11" target="O_Jx8exErh70YmbbdTf5-1">
                    <mxGeometry relative="1" as="geometry"/>
                </mxCell>
                <mxCell id="O_Jx8exErh70YmbbdTf5-7" style="edgeStyle=none;html=1;exitX=0.5;exitY=1;exitDx=0;exitDy=0;entryX=0.5;entryY=0;entryDx=0;entryDy=0;fontColor=#F0EFE2;" edge="1" parent="1" source="O_Jx8exErh70YmbbdTf5-2" target="O_Jx8exErh70YmbbdTf5-4">
                    <mxGeometry relative="1" as="geometry"/>
                </mxCell>
            </root>
        </mxGraphModel>
    </diagram>
</mxfile>